<svg xmlns="http://www.w3.org/2000/svg" xmlns:xlink="http://www.w3.org/1999/xlink" width="2000" zoomAndPan="magnify" viewBox="0 0 1500 1499.999933" height="2000" preserveAspectRatio="xMidYMid meet" version="1.0"><defs><clipPath id="b443422b14"><path d="M 300 300 L 1200 300 L 1200 1200 L 300 1200 Z M 300 300 " clip-rule="nonzero"/></clipPath><clipPath id="8cf19d46fe"><path d="M 750 300 C 501.472656 300 300 501.472656 300 750 C 300 998.527344 501.472656 1200 750 1200 C 998.527344 1200 1200 998.527344 1200 750 C 1200 501.472656 998.527344 300 750 300 Z M 750 300 " clip-rule="nonzero"/></clipPath><clipPath id="d59f7f2916"><path d="M 0 0 L 900 0 L 900 900 L 0 900 Z M 0 0 " clip-rule="nonzero"/></clipPath><clipPath id="aec26cc96b"><path d="M 450 0 C 201.472656 0 0 201.472656 0 450 C 0 698.527344 201.472656 900 450 900 C 698.527344 900 900 698.527344 900 450 C 900 201.472656 698.527344 0 450 0 Z M 450 0 " clip-rule="nonzero"/></clipPath><clipPath id="ded2c2f33c"><rect x="0" width="900" y="0" height="900"/></clipPath><clipPath id="b7a8fc0803"><path d="M 513.71875 424.09375 L 986.21875 424.09375 L 986.21875 1075.84375 L 513.71875 1075.84375 Z M 513.71875 424.09375 " clip-rule="nonzero"/></clipPath><clipPath id="0af81f5bde"><path d="M 513.71875 597 L 672 597 L 672 920 L 513.71875 920 Z M 513.71875 597 " clip-rule="nonzero"/></clipPath></defs><rect x="-150" width="1800" fill="#ffffff" y="-149.999993" height="1799.99992" fill-opacity="1"/><rect x="-150" width="1800" fill="#00bf63" y="-149.999993" height="1799.99992" fill-opacity="1"/><g clip-path="url(#b443422b14)"><g clip-path="url(#8cf19d46fe)"><g transform="matrix(1, 0, 0, 1, 300, 300)"><g clip-path="url(#ded2c2f33c)"><g clip-path="url(#d59f7f2916)"><g clip-path="url(#aec26cc96b)"><rect x="-630" width="2160" fill="#0db561" height="2159.999904" y="-629.999985" fill-opacity="1"/></g></g></g></g></g></g><g clip-path="url(#b7a8fc0803)"><path fill="#ffffff" d="M 513.71875 893.730469 L 592.523438 848.234375 C 595.503906 846.511719 598.535156 844.890625 601.621094 843.371094 C 604.707031 841.847656 607.835938 840.429688 611.015625 839.113281 C 614.191406 837.796875 617.410156 836.585938 620.667969 835.480469 C 623.925781 834.375 627.214844 833.375 630.539062 832.484375 C 633.859375 831.59375 637.207031 830.8125 640.582031 830.140625 C 643.957031 829.472656 647.347656 828.910156 650.757812 828.460938 C 654.167969 828.011719 657.589844 827.675781 661.023438 827.449219 C 664.457031 827.226562 667.890625 827.113281 671.332031 827.113281 C 674.773438 827.113281 678.207031 827.226562 681.640625 827.449219 C 685.074219 827.675781 688.496094 828.011719 691.90625 828.460938 C 695.316406 828.910156 698.707031 829.472656 702.082031 830.140625 C 705.453125 830.8125 708.804688 831.59375 712.125 832.484375 C 715.449219 833.375 718.738281 834.375 721.996094 835.480469 C 725.253906 836.585938 728.46875 837.796875 731.648438 839.113281 C 734.828125 840.429688 737.957031 841.847656 741.042969 843.371094 C 744.128906 844.890625 747.160156 846.511719 750.136719 848.234375 L 828.90625 893.703125 L 828.90625 529.769531 L 513.71875 711.730469 L 513.71875 529.769531 L 671.382812 438.699219 C 673.367188 437.554688 675.390625 436.472656 677.445312 435.460938 C 679.503906 434.445312 681.589844 433.5 683.707031 432.625 C 685.824219 431.746094 687.96875 430.9375 690.140625 430.203125 C 692.3125 429.464844 694.503906 428.800781 696.71875 428.207031 C 698.933594 427.613281 701.164062 427.09375 703.414062 426.648438 C 705.664062 426.199219 707.921875 425.828125 710.195312 425.527344 C 712.46875 425.226562 714.75 425.003906 717.039062 424.855469 C 719.324219 424.703125 721.617188 424.628906 723.910156 424.628906 C 726.203125 424.628906 728.492188 424.703125 730.777344 424.855469 C 733.066406 425.003906 735.347656 425.230469 737.621094 425.527344 C 739.894531 425.828125 742.152344 426.199219 744.402344 426.648438 C 746.652344 427.097656 748.882812 427.617188 751.097656 428.210938 C 753.3125 428.804688 755.503906 429.46875 757.675781 430.207031 C 759.847656 430.941406 761.992188 431.75 764.109375 432.628906 C 766.226562 433.503906 768.3125 434.449219 770.371094 435.464844 C 772.425781 436.476562 774.449219 437.558594 776.433594 438.703125 C 778.417969 439.851562 780.363281 441.0625 782.269531 442.335938 C 784.175781 443.609375 786.039062 444.945312 787.859375 446.339844 C 789.675781 447.734375 791.449219 449.1875 793.171875 450.699219 C 794.894531 452.210938 796.566406 453.777344 798.1875 455.398438 C 799.808594 457.019531 801.375 458.691406 802.886719 460.417969 C 804.398438 462.140625 805.855469 463.910156 807.25 465.730469 C 808.644531 467.550781 809.980469 469.410156 811.253906 471.316406 C 812.527344 473.222656 813.738281 475.171875 814.882812 477.15625 C 816.03125 479.140625 817.109375 481.164062 818.125 483.21875 C 819.136719 485.273438 820.082031 487.363281 820.960938 489.480469 C 821.839844 491.597656 822.644531 493.742188 823.382812 495.914062 C 824.121094 498.085938 824.785156 500.277344 825.378906 502.492188 C 825.972656 504.707031 826.492188 506.9375 826.9375 509.1875 C 827.386719 511.433594 827.761719 513.695312 828.058594 515.96875 C 828.359375 518.242188 828.582031 520.523438 828.734375 522.808594 C 828.882812 525.097656 828.957031 527.386719 828.957031 529.679688 L 829.074219 529.601562 C 831.058594 528.457031 833.082031 527.378906 835.136719 526.367188 C 837.191406 525.355469 839.28125 524.410156 841.398438 523.535156 C 843.515625 522.660156 845.660156 521.855469 847.832031 521.117188 C 850 520.382812 852.195312 519.71875 854.410156 519.125 C 856.621094 518.535156 858.855469 518.015625 861.101562 517.570312 C 863.351562 517.125 865.609375 516.75 867.882812 516.453125 C 870.15625 516.15625 872.4375 515.933594 874.722656 515.785156 C 877.011719 515.636719 879.300781 515.5625 881.589844 515.5625 C 883.882812 515.5625 886.171875 515.640625 888.460938 515.789062 C 890.746094 515.941406 893.027344 516.167969 895.296875 516.464844 C 897.570312 516.765625 899.832031 517.140625 902.078125 517.589844 C 904.328125 518.035156 906.558594 518.558594 908.769531 519.152344 C 910.984375 519.746094 913.175781 520.410156 915.347656 521.148438 C 917.515625 521.886719 919.660156 522.695312 921.777344 523.570312 C 923.894531 524.449219 925.980469 525.394531 928.035156 526.410156 C 930.089844 527.425781 932.113281 528.503906 934.097656 529.652344 C 936.082031 530.796875 938.027344 532.007812 939.929688 533.28125 C 941.835938 534.554688 943.699219 535.890625 945.515625 537.285156 C 947.335938 538.683594 949.105469 540.136719 950.828125 541.648438 C 952.550781 543.160156 954.222656 544.726562 955.84375 546.347656 C 957.464844 547.96875 959.027344 549.640625 960.539062 551.363281 C 962.050781 553.085938 963.503906 554.859375 964.898438 556.675781 C 966.292969 558.496094 967.628906 560.355469 968.898438 562.261719 C 970.171875 564.167969 971.382812 566.113281 972.527344 568.097656 C 973.675781 570.085938 974.753906 572.105469 975.765625 574.160156 C 976.78125 576.214844 977.726562 578.300781 978.601562 580.421875 C 979.480469 582.539062 980.289062 584.683594 981.023438 586.851562 C 981.761719 589.023438 982.425781 591.214844 983.019531 593.429688 C 983.613281 595.640625 984.132812 597.875 984.578125 600.121094 C 985.027344 602.371094 985.398438 604.628906 985.699219 606.902344 C 985.996094 609.175781 986.222656 611.453125 986.371094 613.742188 C 986.523438 616.027344 986.597656 618.316406 986.597656 620.609375 L 986.597656 711.78125 C 986.597656 715.222656 986.484375 718.65625 986.257812 722.089844 C 986.03125 725.519531 985.695312 728.941406 985.246094 732.347656 C 984.796875 735.757812 984.234375 739.148438 983.5625 742.523438 C 982.890625 745.894531 982.109375 749.242188 981.21875 752.5625 C 980.328125 755.886719 979.332031 759.175781 978.222656 762.429688 C 977.117188 765.6875 975.90625 768.902344 974.589844 772.078125 C 973.273438 775.257812 971.855469 778.386719 970.332031 781.472656 C 968.8125 784.554688 967.191406 787.585938 965.472656 790.5625 C 963.75 793.542969 961.9375 796.460938 960.023438 799.320312 C 958.113281 802.179688 956.113281 804.972656 954.019531 807.699219 C 951.925781 810.429688 949.742188 813.085938 947.476562 815.671875 C 945.207031 818.253906 942.859375 820.761719 940.425781 823.195312 C 937.996094 825.625 935.484375 827.976562 932.898438 830.242188 C 930.316406 832.511719 927.65625 834.691406 924.929688 836.785156 C 922.199219 838.875 919.40625 840.878906 916.546875 842.789062 C 913.6875 844.699219 910.769531 846.515625 907.789062 848.234375 L 828.945312 893.757812 L 513.71875 1075.730469 Z M 513.71875 893.730469 " fill-opacity="1" fill-rule="nonzero"/></g><g clip-path="url(#0af81f5bde)"><path fill="#ffffff" d="M 513.71875 597.46875 L 671.410156 597.46875 L 671.410156 919.914062 L 513.71875 919.914062 Z M 513.71875 597.46875 " fill-opacity="1" fill-rule="nonzero"/></g></svg>